<?xml version="1.0" encoding="UTF-8" standalone="no"?>
<svg xmlns:dc="http://purl.org/dc/elements/1.1/" xmlns:cc="http://creativecommons.org/ns#" xmlns:rdf="http://www.w3.org/1999/02/22-rdf-syntax-ns#" xmlns:svg="http://www.w3.org/2000/svg" xmlns="http://www.w3.org/2000/svg" viewBox="0 0 600.995 600.995" height="600.995" width="600.995" xml:space="preserve" version="1.1" id="svg3534"><link xmlns="" type="text/css" rel="stylesheet" id="dark-mode-custom-link"/><link xmlns="" type="text/css" rel="stylesheet" id="dark-mode-general-link"/><style xmlns="" lang="en" type="text/css" id="dark-mode-custom-style"/><style xmlns="" lang="en" type="text/css" id="dark-mode-native-style"/><metadata id="metadata3540"><rdf:RDF><cc:Work rdf:about=""><dc:format>image/svg+xml</dc:format><dc:type rdf:resource="http://purl.org/dc/dcmitype/StillImage"/><dc:title/></cc:Work></rdf:RDF></metadata><defs id="defs3538"/><g transform="matrix(1.25,0,0,-1.25,0,600.99499)" id="g3542"><g id="g3544"><path id="path3546" style="fill:#ffffff;fill-opacity:1;fill-rule:nonzero;stroke:none" d="m 480.398,240.398 c 0,-132.551 -107.449,-240 -240,-240 -132.55,0 -240,107.449 -240,240 0,132.55 107.45,240 240,240 132.551,0 240,-107.45 240,-240 z"/><path id="path3548" style="fill:#000000;fill-opacity:1;fill-rule:nonzero;stroke:none" d="M 240.398,480.796 C 107.633,480.796 0,373.163 0,240.398 0,107.632 107.633,-0.001 240.398,-0.001 c 132.766,0 240.399,107.633 240.399,240.399 0,132.765 -107.633,240.398 -240.399,240.398 z m 0,-0.398 c 132.551,0 240,-107.45 240,-240 0,-132.551 -107.449,-240 -240,-240 -132.55,0 -240,107.449 -240,240 0,132.55 107.45,240 240,240 z"/><path id="path3550" style="fill:#c1121c;fill-opacity:1;fill-rule:nonzero;stroke:none" d="m 240.398,472.398 c -127.746,0 -232,-104.254 -232,-232 0,-127.747 104.254,-232 232,-232 127.747,0 232,104.253 232,232 0,127.746 -104.253,232 -232,232 z m 0,-64.321 c 92.989,0 167.68,-74.691 167.68,-167.679 0,-92.989 -74.691,-167.68 -167.68,-167.68 -92.988,0 -167.679,74.691 -167.679,167.68 0,92.988 74.691,167.679 167.679,167.679 z"/><path id="path3552" style="fill:#000000;fill-opacity:1;fill-rule:nonzero;stroke:none" d="m 23.832,456.511 0,-0.024 -0.023,0 0.023,0.024 z"/><path id="path3554" style="fill:#000000;fill-opacity:1;fill-rule:nonzero;stroke:none" d="m 23.809,456.511 0.023,0 0,-0.023 -0.023,0 0,0.023 z"/><path id="path3556" style="fill:#000000;fill-opacity:1;fill-rule:nonzero;stroke:none" d="m 23.809,456.487 0,0.024 0.023,-0.024 -0.023,0 z m 0.023,0 -0.023,0.024 0,-0.024 0.023,0 z"/><path id="path3558" style="fill:#000000;fill-opacity:1;fill-rule:nonzero;stroke:none" d="m 23.859,456.487 -0.05,0 0.023,0 0,0.024 0.027,-0.024 z"/><path id="path3560" style="fill:#000000;fill-opacity:1;fill-rule:nonzero;stroke:none" d="m 23.809,456.487 0,0.024 0,-0.024 0.023,0.024 -0.023,-0.024 z"/><path id="path3562" style="fill:#000000;fill-opacity:1;fill-rule:nonzero;stroke:none" d="m 23.809,456.511 0.023,0 0,-0.023 -0.023,0 0,0.023 z"/><path id="path3564" style="fill:#000000;fill-opacity:1;fill-rule:nonzero;stroke:none" d="m 23.859,456.511 0,-0.047 -0.05,0 0.05,0.047 z"/><path id="path3566" style="fill:#000000;fill-opacity:1;fill-rule:nonzero;stroke:none" d="m 23.809,456.511 0.051,0 0,-0.047 -0.051,0 0,0.047 z"/><path id="path3568" style="fill:#000000;fill-opacity:1;fill-rule:nonzero;stroke:none" d="m 23.809,456.464 0,0.047 0.05,-0.047 -0.05,0 z m 0.05,0 -0.05,0.047 0,-0.047 0.05,0 z"/><path id="path3570" style="fill:#000000;fill-opacity:1;fill-rule:nonzero;stroke:none" d="m 23.859,456.464 -0.05,0 0.023,0 0,0.047 0.027,-0.047 z"/><path id="path3572" style="fill:#000000;fill-opacity:1;fill-rule:nonzero;stroke:none" d="m 23.809,456.464 0,0.047 0,-0.047 0.05,0.047 -0.05,-0.047 z"/><path id="path3574" style="fill:#000000;fill-opacity:1;fill-rule:nonzero;stroke:none" d="m 23.809,456.511 0.051,0 0,-0.047 -0.051,0 0,0.047 z"/><path id="path3576" style="fill:#000000;fill-opacity:1;fill-rule:nonzero;stroke:none" d="m 23.859,456.511 0,-0.047 -0.05,0 0.05,0.047 z"/><path id="path3578" style="fill:#000000;fill-opacity:1;fill-rule:nonzero;stroke:none" d="m 23.809,456.511 0.051,0 0,-0.047 -0.051,0 0,0.047 z"/><path id="path3580" style="fill:#000000;fill-opacity:1;fill-rule:nonzero;stroke:none" d="m 23.809,456.464 0,0.047 0.05,-0.047 -0.05,0 z m 0.05,0 -0.05,0.047 0,-0.047 0.05,0 z"/><path id="path3582" style="fill:#000000;fill-opacity:1;fill-rule:nonzero;stroke:none" d="m 23.859,456.464 -0.05,0 0.023,0 0,0.047 0.027,-0.047 z"/><path id="path3584" style="fill:#000000;fill-opacity:1;fill-rule:nonzero;stroke:none" d="m 23.809,456.464 0,0.047 0,-0.047 0.05,0.047 -0.05,-0.047 z"/><path id="path3586" style="fill:#000000;fill-opacity:1;fill-rule:nonzero;stroke:none" d="m 23.809,456.511 0.051,0 0,-0.047 -0.051,0 0,0.047 z"/><path id="path3588" style="fill:#000000;fill-opacity:1;fill-rule:nonzero;stroke:none" d="m 23.859,456.511 0,-0.047 -0.05,0 0.05,0.047 z"/><path id="path3590" style="fill:#000000;fill-opacity:1;fill-rule:nonzero;stroke:none" d="m 23.809,456.511 0.051,0 0,-0.047 -0.051,0 0,0.047 z"/><path id="path3592" style="fill:#000000;fill-opacity:1;fill-rule:nonzero;stroke:none" d="m 23.809,456.464 0,0.047 0.05,-0.047 -0.05,0 z m 0.05,0 -0.05,0.047 0,-0.047 0.05,0 z"/><path id="path3594" style="fill:#000000;fill-opacity:1;fill-rule:nonzero;stroke:none" d="m 23.859,456.464 -0.05,0 0.023,0 0,0.047 0.027,-0.047 z"/><path id="path3596" style="fill:#000000;fill-opacity:1;fill-rule:nonzero;stroke:none" d="m 23.809,456.464 0,0.047 0,-0.047 0.05,0.047 -0.05,-0.047 z"/><path id="path3598" style="fill:#000000;fill-opacity:1;fill-rule:nonzero;stroke:none" d="m 23.809,456.511 0.051,0 0,-0.047 -0.051,0 0,0.047 z"/><path id="path3600" style="fill:#000000;fill-opacity:1;fill-rule:evenodd;stroke:none" d="m 175.352,338.308 31.453,0 -42.047,-83.762 c 22.176,8.203 44.551,0.711 56.945,-19.535 11.313,-20.828 8.609,-63.004 -11.586,-79.129 -24.574,-22.352 -59.933,-19.832 -81.777,4.969 -10.695,13.894 -13.469,27.257 -12.582,44.363 l 0,2.648 0.332,5.297 0.992,4.969 1.324,4.965 1.989,4.965 0.992,2.32 53.965,107.93 z M 143.57,205.214 c -5.011,-45.582 53.856,-48.488 55.95,-8.609 5.574,46.293 -53.93,48.515 -55.95,8.609 z m 108.594,-8.609 c 5.848,52.832 -23.531,128.671 49,143.027 33.195,3.957 63.117,-21.895 62.902,-55.621 -5.832,-53.531 23.532,-128.09 -49,-143.028 -33.695,-3.789 -62.871,21.493 -62.902,55.622 z m 27.809,0 0,87.406 0.332,1.988 0.332,3.309 0.66,3.312 1.324,3.309 1.656,3.312 c 5.711,7.367 10.828,11.071 20.196,12.582 17.039,2.157 31.488,-10.734 31.453,-27.812 l 0,-89.059 -0.332,-3.644 -0.992,-3.309 -1.325,-3.312 -1.656,-2.981 c -4.183,-7.183 -12.078,-11.781 -20.195,-12.91 -8.145,-0.84 -16.676,1.754 -22.512,7.613 -7.086,6.774 -7.926,11.02 -8.941,20.196"/></g></g></svg>